<?xml version="1.0" encoding="utf-8"?>
<!-- Generator: Adobe Illustrator 26.0.1, SVG Export Plug-In . SVG Version: 6.00 Build 0)  -->
<svg version="1.1" xmlns="http://www.w3.org/2000/svg" xmlns:xlink="http://www.w3.org/1999/xlink" x="0px" y="0px"
	 viewBox="0 0 841.89 595.28" style="enable-background:new 0 0 841.89 595.28;" xml:space="preserve">
<style type="text/css">
	.st0{display:none;}
	.st1{display:inline;}
	.st2{fill:none;stroke:#FFFFFF;stroke-miterlimit:10;}
	.st3{fill:#FECB3F;}
</style>
<g id="Layer_2" class="st0">
	<rect x="204.91" y="91.2" class="st1" width="446.4" height="231.12"/>
</g>
<g id="Layer_1">
	<polyline class="st2" points="304.24,218.64 329.99,218.64 344.91,233.95 360.84,218.64 385.97,218.64 	"/>
	<polyline class="st2" points="352.03,241.15 366.18,227.23 392.62,227.23 402.6,231.87 	"/>
	<polyline class="st2" points="362.7,246.25 368.5,236.51 391.93,236.51 402.6,244.16 	"/>
	<polyline class="st2" points="389.14,247.18 403.76,256.46 403.76,285.69 411.18,291.49 	"/>
	<polyline class="st2" points="389.14,258.68 394.71,262.62 394.71,299.51 405.15,308.79 	"/>
	<polyline class="st2" points="387.06,276.87 387.06,322.11 374.53,333.71 374.53,336.73 	"/>
	<polyline class="st2" points="377.31,296.59 377.31,319.33 362.7,333.25 362.7,351.34 	"/>
	<polyline class="st2" points="366.64,306.8 366.64,318.86 353.42,331.39 353.42,363.17 	"/>
	<line class="st2" x1="344.56" y1="321.42" x2="344.56" y2="376.22"/>
	<rect x="340.97" y="376.22" class="st2" width="6.17" height="6.17"/>
	<rect x="298.06" y="215.56" class="st2" width="6.17" height="6.17"/>
	<rect x="386.06" y="215.56" class="st2" width="6.17" height="6.17"/>
	
		<rect x="404.37" y="307.66" transform="matrix(0.6599 -0.7514 0.7514 0.6599 -94.9019 411.8402)" class="st2" width="6.17" height="6.17"/>
	<rect x="371.44" y="336.73" class="st2" width="6.17" height="6.17"/>
	<rect x="359.38" y="351.34" class="st2" width="6.17" height="6.17"/>
	<rect x="350.33" y="363.17" class="st2" width="6.17" height="6.17"/>
	
		<rect x="402.07" y="243.16" transform="matrix(0.5608 -0.8279 0.8279 0.5608 -25.9521 443.5741)" class="st2" width="6.17" height="6.17"/>
	
		<rect x="410.33" y="290.07" transform="matrix(0.597 -0.8023 0.8023 0.597 -68.5669 449.8235)" class="st2" width="6.17" height="6.17"/>
	
		<rect x="402.07" y="230.23" transform="matrix(0.4568 -0.8896 0.8896 0.4568 12.5249 487.1468)" class="st2" width="6.17" height="6.17"/>
	<polyline class="st2" points="337.38,241.56 323.22,227.64 296.78,227.64 286.8,232.28 	"/>
	<polyline class="st2" points="326.7,246.66 320.9,236.92 297.47,236.92 286.8,244.57 	"/>
	<polyline class="st2" points="300.26,247.59 285.64,256.87 285.64,286.1 278.22,291.9 	"/>
	<polyline class="st2" points="300.26,259.09 294.69,263.03 294.69,299.92 284.25,309.2 	"/>
	<polyline class="st2" points="302.35,277.28 302.35,322.52 314.87,334.12 314.87,337.14 	"/>
	<polyline class="st2" points="312.09,297 312.09,319.74 326.7,333.66 326.7,351.75 	"/>
	<polyline class="st2" points="322.76,307.21 322.76,319.27 335.98,331.8 335.98,363.58 	"/>
	
		<rect x="278.85" y="308.07" transform="matrix(-0.6599 -0.7514 0.7514 -0.6599 234.1987 728.3251)" class="st2" width="6.17" height="6.17"/>
	
		<rect x="311.79" y="337.14" transform="matrix(-1 -4.537805e-11 4.537805e-11 -1 629.7454 680.4463)" class="st2" width="6.17" height="6.17"/>
	
		<rect x="323.85" y="351.75" transform="matrix(-1 -4.508317e-11 4.508317e-11 -1 653.8726 709.6773)" class="st2" width="6.17" height="6.17"/>
	
		<rect x="332.9" y="363.58" transform="matrix(-1 -4.508317e-11 4.508317e-11 -1 671.968 733.3405)" class="st2" width="6.17" height="6.17"/>
	
		<rect x="281.16" y="243.57" transform="matrix(-0.5608 -0.8279 0.8279 -0.5608 239.4566 620.334)" class="st2" width="6.17" height="6.17"/>
	
		<rect x="272.89" y="290.48" transform="matrix(-0.597 -0.8023 0.8023 -0.597 205.2168 690.2239)" class="st2" width="6.17" height="6.17"/>
	
		<rect x="281.16" y="230.64" transform="matrix(-0.4568 -0.8896 0.8896 -0.4568 206.1805 593.3538)" class="st2" width="6.17" height="6.17"/>
	<path class="st3" d="M385.66,252.05c-1.33-2.2-9.98-10.9-12.06-10.9c-2.09,0-29.04,10.9-29.04,10.9s-26.95-10.9-29.04-10.9
		c-2.09,0-10.73,8.7-12.06,10.9c-1.33,2.2,2.09,14.85,1.86,16.01c-0.23,1.16,16.01,11.72,16.24,13.92c0.23,2.2-5.05,7.44-4.87,10.21
		c0.18,2.77,11.43,15.54,13.92,15.54c2.49,0,11.56-5.34,11.56-5.34v-1.86c0,0-5.86-7.88-6.85-9.1c-0.99-1.22,3.26-10.85,2.94-12.94
		c-0.32-2.09-2.78-7.54-3.71-9.28c-0.93-1.74-5.01-0.64-10.54-1.62c-5.53-0.99-6.4-6.03-6.4-6.03s13.4,2.84,16.01,3.94
		c2.61,1.1,6.86,11.76,6.5,13.22c-0.37,1.46-3.19,11.02-3.02,12.06c0.17,1.04,7.46,1.22,7.46,1.22s7.29-0.17,7.46-1.22
		c0.17-1.04-2.65-10.6-3.02-12.06c-0.37-1.46,3.89-12.12,6.5-13.22c2.61-1.1,16.01-3.94,16.01-3.94s-0.87,5.05-6.4,6.03
		c-5.53,0.99-9.61-0.12-10.54,1.62c-0.93,1.74-3.39,7.19-3.71,9.28c-0.32,2.09,3.93,11.72,2.95,12.94c-0.99,1.22-6.85,9.1-6.85,9.1
		v1.86c0,0,9.07,5.34,11.56,5.34c2.49,0,13.11-11.6,13.92-15.54c1.04-2.09-5.1-8-4.87-10.21c0.23-2.2,16.47-12.76,16.24-13.92
		C383.58,266.9,387,254.25,385.66,252.05z"/>
	<polygon class="st3" points="330.95,310.57 330.95,321.98 344.56,329.61 358.17,321.98 358.17,310.57 344.56,304.87 	"/>
	<g>
		<path class="st3" d="M498.24,267.61l17.35-21.88c1.71-2.11,2.14-3.87,1.28-5.28c-0.86-1.41-2.39-2.41-4.6-3.02v-3.77h43.15v3.77
			c-3.22,0.6-5.86,1.84-7.92,3.7c-2.06,1.86-4.1,4.1-6.11,6.71l-29.42,37.27l34.25,43.3c2.21,2.82,4.35,5.11,6.41,6.87
			c2.06,1.76,4.7,3.04,7.92,3.85v3.77h-43.3v-3.77c2.21-0.6,3.72-1.66,4.53-3.17c0.8-1.51,0.45-3.27-1.06-5.28l-22.33-28.36
			l-22.48,28.36c-1.51,1.91-1.86,3.65-1.06,5.21c0.8,1.56,2.31,2.64,4.53,3.24v3.77h-43.3v-3.77c3.22-0.8,5.91-2.14,8.07-4
			c2.16-1.86,4.3-4.1,6.41-6.71l34.25-43.45l-29.27-37.12c-2.01-2.61-4.1-4.85-6.26-6.71c-2.16-1.86-4.85-3.09-8.07-3.7v-3.77h43.3
			v3.77c-2.31,0.6-3.9,1.61-4.75,3.02c-0.86,1.41-0.43,3.17,1.28,5.28L498.24,267.61z"/>
		<path class="st3" d="M640.97,267.61l17.35-21.88c1.71-2.11,2.14-3.87,1.28-5.28c-0.86-1.41-2.39-2.41-4.6-3.02v-3.77h43.15v3.77
			c-3.22,0.6-5.86,1.84-7.92,3.7c-2.06,1.86-4.1,4.1-6.11,6.71l-29.42,37.27l34.25,43.3c2.21,2.82,4.35,5.11,6.41,6.87
			c2.06,1.76,4.7,3.04,7.92,3.85v3.77h-43.3v-3.77c2.21-0.6,3.72-1.66,4.53-3.17c0.8-1.51,0.45-3.27-1.06-5.28l-22.33-28.36
			l-22.48,28.36c-1.51,1.91-1.86,3.65-1.06,5.21c0.8,1.56,2.31,2.64,4.53,3.24v3.77h-43.3v-3.77c3.22-0.8,5.91-2.14,8.07-4
			c2.16-1.86,4.3-4.1,6.41-6.71l34.25-43.45l-29.27-37.12c-2.01-2.61-4.1-4.85-6.26-6.71c-2.16-1.86-4.85-3.09-8.07-3.7v-3.77h43.3
			v3.77c-2.31,0.6-3.9,1.61-4.75,3.02c-0.86,1.41-0.43,3.17,1.28,5.28L640.97,267.61z"/>
	</g>
	<g>
		<path class="st3" d="M250.86,342.9h-32.74v-3.77c1.21-0.1,2.04-0.45,2.49-1.06s0.6-1.28,0.45-2.04c-0.15-0.75-0.53-1.58-1.13-2.49
			s-1.26-1.76-1.96-2.56l-61.1-63.37v65.48c0,1.91,0.28,3.22,0.83,3.92c0.55,0.7,1.94,1.41,4.15,2.11v3.77h-31.23v-3.77
			c2.31-0.5,3.75-1.18,4.3-2.04c0.55-0.85,0.83-2.19,0.83-4v-89.62c0-2.01-0.33-3.4-0.98-4.15c-0.66-0.75-2.04-1.38-4.15-1.89v-3.77
			h36.36v3.77c-1.81,0.3-2.72,1.36-2.72,3.17c0,1.01,0.25,1.91,0.75,2.72c0.5,0.81,1.11,1.51,1.81,2.11l58.09,61.26v-63.22
			c0-1.81-0.23-3.07-0.68-3.77c-0.45-0.7-1.94-1.46-4.45-2.26v-3.77h31.08v3.77c-2.31,0.7-3.72,1.46-4.22,2.26
			c-0.5,0.81-0.75,2.06-0.75,3.77v89.62c0,1.91,0.33,3.27,0.98,4.07c0.65,0.81,1.98,1.46,4,1.96V342.9z"/>
	</g>
	<g>
		<polyline class="st2" points="304.24,-177.1 329.99,-177.1 344.91,-161.79 360.84,-177.1 385.97,-177.1 		"/>
		<polyline class="st2" points="352.03,-154.6 366.18,-168.52 392.62,-168.52 402.6,-163.88 		"/>
		<polyline class="st2" points="362.7,-149.49 368.5,-159.24 391.93,-159.24 402.6,-151.58 		"/>
		<polyline class="st2" points="389.14,-148.57 403.76,-139.29 403.76,-110.05 411.18,-104.25 		"/>
		<polyline class="st2" points="389.14,-137.07 394.71,-133.12 394.71,-96.23 405.15,-86.95 		"/>
		<polyline class="st2" points="387.06,-118.87 387.06,-73.63 374.53,-62.03 374.53,-59.02 		"/>
		<polyline class="st2" points="377.31,-99.15 377.31,-76.42 362.7,-62.5 362.7,-44.4 		"/>
		<polyline class="st2" points="366.64,-88.94 366.64,-76.88 353.42,-64.35 353.42,-32.57 		"/>
		<line class="st2" x1="344.56" y1="-74.33" x2="344.56" y2="-19.52"/>
		<rect x="340.97" y="-19.52" class="st2" width="6.17" height="6.17"/>
		<rect x="298.06" y="-180.19" class="st2" width="6.17" height="6.17"/>
		<rect x="386.06" y="-180.19" class="st2" width="6.17" height="6.17"/>
		
			<rect x="404.37" y="-88.08" transform="matrix(0.6599 -0.7514 0.7514 0.6599 202.4458 277.243)" class="st2" width="6.17" height="6.17"/>
		<rect x="371.44" y="-59.02" class="st2" width="6.17" height="6.17"/>
		<rect x="359.38" y="-44.4" class="st2" width="6.17" height="6.17"/>
		<rect x="350.33" y="-32.57" class="st2" width="6.17" height="6.17"/>
		
			<rect x="402.07" y="-152.58" transform="matrix(0.5608 -0.8279 0.8279 0.5608 301.6915 269.7826)" class="st2" width="6.17" height="6.17"/>
		
			<rect x="410.33" y="-105.67" transform="matrix(0.597 -0.8023 0.8023 0.597 248.9243 290.3263)" class="st2" width="6.17" height="6.17"/>
		
			<rect x="402.07" y="-165.51" transform="matrix(0.4568 -0.8896 0.8896 0.4568 364.5655 272.1807)" class="st2" width="6.17" height="6.17"/>
		<polyline class="st2" points="337.38,-154.19 323.22,-168.11 296.78,-168.11 286.8,-163.47 		"/>
		<polyline class="st2" points="326.7,-149.08 320.9,-158.83 297.47,-158.83 286.8,-151.17 		"/>
		<polyline class="st2" points="300.26,-148.16 285.64,-138.88 285.64,-109.65 278.22,-103.85 		"/>
		<polyline class="st2" points="300.26,-136.66 294.69,-132.71 294.69,-95.83 284.25,-86.55 		"/>
		<polyline class="st2" points="302.35,-118.46 302.35,-73.22 314.87,-61.62 314.87,-58.61 		"/>
		<polyline class="st2" points="312.09,-98.74 312.09,-76.01 326.7,-62.09 326.7,-43.99 		"/>
		<polyline class="st2" points="322.76,-88.53 322.76,-76.47 335.98,-63.94 335.98,-32.16 		"/>
		
			<rect x="278.85" y="-87.67" transform="matrix(-0.6599 -0.7514 0.7514 -0.6599 531.5465 71.4351)" class="st2" width="6.17" height="6.17"/>
		
			<rect x="311.79" y="-58.61" transform="matrix(-1 -4.537805e-11 4.537805e-11 -1 629.7455 -111.041)" class="st2" width="6.17" height="6.17"/>
		
			<rect x="323.85" y="-43.99" transform="matrix(-1 -4.508317e-11 4.508317e-11 -1 653.8727 -81.81)" class="st2" width="6.17" height="6.17"/>
		
			<rect x="332.9" y="-32.16" transform="matrix(-1 -4.508317e-11 4.508317e-11 -1 671.9681 -58.1468)" class="st2" width="6.17" height="6.17"/>
		
			<rect x="281.16" y="-152.17" transform="matrix(-0.5608 -0.8279 0.8279 -0.5608 567.1002 2.6383)" class="st2" width="6.17" height="6.17"/>
		
			<rect x="272.89" y="-105.27" transform="matrix(-0.597 -0.8023 0.8023 -0.597 522.7081 58.2338)" class="st2" width="6.17" height="6.17"/>
		
			<rect x="281.16" y="-165.1" transform="matrix(-0.4568 -0.8896 0.8896 -0.4568 558.2212 16.8326)" class="st2" width="6.17" height="6.17"/>
		<path class="st3" d="M385.66-143.69c-1.33-2.2-9.98-10.9-12.06-10.9c-2.09,0-29.04,10.9-29.04,10.9s-26.95-10.9-29.04-10.9
			c-2.09,0-10.73,8.7-12.06,10.9c-1.33,2.2,2.09,14.85,1.86,16.01c-0.23,1.16,16.01,11.72,16.24,13.92
			c0.23,2.2-5.05,7.44-4.87,10.21c0.18,2.77,11.43,15.54,13.92,15.54c2.49,0,11.56-5.34,11.56-5.34v-1.86c0,0-5.86-7.88-6.85-9.1
			c-0.99-1.22,3.26-10.85,2.94-12.94c-0.32-2.09-2.78-7.54-3.71-9.28c-0.93-1.74-5.01-0.64-10.54-1.62c-5.53-0.99-6.4-6.03-6.4-6.03
			s13.4,2.84,16.01,3.94c2.61,1.1,6.86,11.76,6.5,13.22c-0.37,1.46-3.19,11.02-3.02,12.06c0.17,1.04,7.46,1.22,7.46,1.22
			s7.29-0.17,7.46-1.22c0.17-1.04-2.65-10.6-3.02-12.06c-0.37-1.46,3.89-12.12,6.5-13.22c2.61-1.1,16.01-3.94,16.01-3.94
			s-0.87,5.05-6.4,6.03c-5.53,0.99-9.61-0.12-10.54,1.62c-0.93,1.74-3.39,7.19-3.71,9.28c-0.32,2.09,3.93,11.72,2.95,12.94
			c-0.99,1.22-6.85,9.1-6.85,9.1v1.86c0,0,9.07,5.34,11.56,5.34c2.49,0,13.11-11.6,13.92-15.54c1.04-2.09-5.1-8-4.87-10.21
			c0.23-2.2,16.47-12.76,16.24-13.92C383.58-128.85,387-141.49,385.66-143.69z"/>
		<polygon class="st3" points="330.95,-85.17 330.95,-73.77 344.56,-66.13 358.17,-73.77 358.17,-85.17 344.56,-90.88 		"/>
		
			<text transform="matrix(1 0 0 1 433.3676 -52.8424)" class="st3" style="font-family:'CopperPennyDTPNormal'; font-size:150.8748px; letter-spacing:12;">XX</text>
		
			<text transform="matrix(1 0 0 1 123.0692 -52.8434)" class="st3" style="font-family:'CopperPennyDTPNormal'; font-size:150.8748px;">N</text>
	</g>
</g>
</svg>
