<svg width="574" height="168" viewBox="0 0 574 168" fill="none" xmlns="http://www.w3.org/2000/svg">
<path d="M174.24 3.64001H199.99L214.91 18.95L230.84 3.64001H255.97" stroke="white" stroke-miterlimit="10"/>
<path d="M222.03 26.15L236.18 12.23H262.62L272.6 16.87" stroke="white" stroke-miterlimit="10"/>
<path d="M232.7 31.25L238.5 21.51H261.93L272.6 29.16" stroke="white" stroke-miterlimit="10"/>
<path d="M259.14 32.18L273.76 41.46V70.69L281.18 76.49" stroke="white" stroke-miterlimit="10"/>
<path d="M259.14 43.68L264.71 47.62V84.51L275.15 93.79" stroke="white" stroke-miterlimit="10"/>
<path d="M257.06 61.87V107.11L244.53 118.71V121.73" stroke="white" stroke-miterlimit="10"/>
<path d="M247.31 81.59V104.33L232.7 118.25V136.34" stroke="white" stroke-miterlimit="10"/>
<path d="M236.64 91.8V103.86L223.42 116.39V148.17" stroke="white" stroke-miterlimit="10"/>
<path d="M214.56 106.42V161.22" stroke="white" stroke-miterlimit="10"/>
<path d="M217.14 161.22H210.97V167.39H217.14V161.22Z" stroke="white" stroke-miterlimit="10"/>
<path d="M174.23 0.559998H168.06V6.73H174.23V0.559998Z" stroke="white" stroke-miterlimit="10"/>
<path d="M262.23 0.559998H256.06V6.73H262.23V0.559998Z" stroke="white" stroke-miterlimit="10"/>
<path d="M277.189 91.3853L273.118 96.0214L277.754 100.093L281.825 95.4568L277.189 91.3853Z" stroke="white" stroke-miterlimit="10"/>
<path d="M247.61 121.73H241.44V127.9H247.61V121.73Z" stroke="white" stroke-miterlimit="10"/>
<path d="M235.55 136.34H229.38V142.51H235.55V136.34Z" stroke="white" stroke-miterlimit="10"/>
<path d="M226.5 148.17H220.33V154.34H226.5V148.17Z" stroke="white" stroke-miterlimit="10"/>
<path d="M274.301 26.9563L270.841 32.0645L275.949 35.5246L279.409 30.4165L274.301 26.9563Z" stroke="white" stroke-miterlimit="10"/>
<path d="M282.807 73.8373L279.123 78.7875L284.073 82.471L287.757 77.5208L282.807 73.8373Z" stroke="white" stroke-miterlimit="10"/>
<path d="M273.822 14.1456L271.003 19.6344L276.492 22.4529L279.31 16.964L273.822 14.1456Z" stroke="white" stroke-miterlimit="10"/>
<path d="M207.38 26.56L193.22 12.64H166.78L156.8 17.28" stroke="white" stroke-miterlimit="10"/>
<path d="M196.7 31.66L190.9 21.92H167.47L156.8 29.57" stroke="white" stroke-miterlimit="10"/>
<path d="M170.26 32.59L155.64 41.87V71.1L148.22 76.9" stroke="white" stroke-miterlimit="10"/>
<path d="M170.26 44.09L164.69 48.03V84.92L154.25 94.2" stroke="white" stroke-miterlimit="10"/>
<path d="M172.35 62.28V107.52L184.87 119.12V122.14" stroke="white" stroke-miterlimit="10"/>
<path d="M182.09 82V104.74L196.7 118.66V136.75" stroke="white" stroke-miterlimit="10"/>
<path d="M192.76 92.21V104.27L205.98 116.8V148.58" stroke="white" stroke-miterlimit="10"/>
<path d="M147.598 95.8656L151.669 100.502L156.306 96.4302L152.234 91.7941L147.598 95.8656Z" stroke="white" stroke-miterlimit="10"/>
<path d="M181.785 128.306L187.955 128.306L187.955 122.136L181.785 122.136L181.785 128.306Z" stroke="white" stroke-miterlimit="10"/>
<path d="M193.853 142.927L200.023 142.927L200.023 136.757L193.853 136.757L193.853 142.927Z" stroke="white" stroke-miterlimit="10"/>
<path d="M202.898 154.761L209.068 154.761L209.068 148.591L202.898 148.591L202.898 154.761Z" stroke="white" stroke-miterlimit="10"/>
<path d="M149.974 30.8595L153.434 35.9676L158.542 32.5075L155.082 27.3993L149.974 30.8595Z" stroke="white" stroke-miterlimit="10"/>
<path d="M141.67 77.9175L145.354 82.8677L150.304 79.1842L146.62 74.234L141.67 77.9175Z" stroke="white" stroke-miterlimit="10"/>
<path d="M150.106 17.3887L152.924 22.8775L158.413 20.059L155.594 14.5702L150.106 17.3887Z" stroke="white" stroke-miterlimit="10"/>
<path d="M255.66 37.05C254.33 34.85 245.68 26.15 243.6 26.15C241.51 26.15 214.56 37.05 214.56 37.05C214.56 37.05 187.61 26.15 185.52 26.15C183.43 26.15 174.79 34.85 173.46 37.05C172.13 39.25 175.55 51.9 175.32 53.06C175.09 54.22 191.33 64.78 191.56 66.98C191.79 69.18 186.51 74.42 186.69 77.19C186.87 79.96 198.12 92.73 200.61 92.73C203.1 92.73 212.17 87.39 212.17 87.39V85.53C212.17 85.53 206.31 77.65 205.32 76.43C204.33 75.21 208.58 65.58 208.26 63.49C207.94 61.4 205.48 55.95 204.55 54.21C203.62 52.47 199.54 53.57 194.01 52.59C188.48 51.6 187.61 46.56 187.61 46.56C187.61 46.56 201.01 49.4 203.62 50.5C206.23 51.6 210.48 62.26 210.12 63.72C209.75 65.18 206.93 74.74 207.1 75.78C207.27 76.82 214.56 77 214.56 77C214.56 77 221.85 76.83 222.02 75.78C222.19 74.74 219.37 65.18 219 63.72C218.63 62.26 222.89 51.6 225.5 50.5C228.11 49.4 241.51 46.56 241.51 46.56C241.51 46.56 240.64 51.61 235.11 52.59C229.58 53.58 225.5 52.47 224.57 54.21C223.64 55.95 221.18 61.4 220.86 63.49C220.54 65.58 224.79 75.21 223.81 76.43C222.82 77.65 216.96 85.53 216.96 85.53V87.39C216.96 87.39 226.03 92.73 228.52 92.73C231.01 92.73 241.63 81.13 242.44 77.19C243.48 75.1 237.34 69.19 237.57 66.98C237.8 64.78 254.04 54.22 253.81 53.06C253.58 51.9 257 39.25 255.66 37.05Z" fill="#FECB3F"/>
<path d="M200.95 95.57V106.98L214.56 114.61L228.17 106.98V95.57L214.56 89.87L200.95 95.57Z" fill="#FECB3F"/>
<path d="M368.24 52.61L385.59 30.73C387.3 28.62 387.73 26.86 386.87 25.45C386.01 24.04 384.48 23.04 382.27 22.43V18.66H425.42V22.43C422.2 23.03 419.56 24.27 417.5 26.13C415.44 27.99 413.4 30.23 411.39 32.84L381.97 70.11L416.22 113.41C418.43 116.23 420.57 118.52 422.63 120.28C424.69 122.04 427.33 123.32 430.55 124.13V127.9H387.25V124.13C389.46 123.53 390.97 122.47 391.78 120.96C392.58 119.45 392.23 117.69 390.72 115.68L368.39 87.32L345.91 115.68C344.4 117.59 344.05 119.33 344.85 120.89C345.65 122.45 347.16 123.53 349.38 124.13V127.9H306.08V124.13C309.3 123.33 311.99 121.99 314.15 120.13C316.31 118.27 318.45 116.03 320.56 113.42L354.81 69.97L325.54 32.85C323.53 30.24 321.44 28 319.28 26.14C317.12 24.28 314.43 23.05 311.21 22.44V18.67H354.51V22.44C352.2 23.04 350.61 24.05 349.76 25.46C348.9 26.87 349.33 28.63 351.04 30.74L368.24 52.61Z" fill="#FECB3F"/>
<path d="M510.97 52.61L528.32 30.73C530.03 28.62 530.46 26.86 529.6 25.45C528.74 24.04 527.21 23.04 525 22.43V18.66H568.15V22.43C564.93 23.03 562.29 24.27 560.23 26.13C558.17 27.99 556.13 30.23 554.12 32.84L524.7 70.11L558.95 113.41C561.16 116.23 563.3 118.52 565.36 120.28C567.42 122.04 570.06 123.32 573.28 124.13V127.9H529.98V124.13C532.19 123.53 533.7 122.47 534.51 120.96C535.31 119.45 534.96 117.69 533.45 115.68L511.12 87.32L488.64 115.68C487.13 117.59 486.78 119.33 487.58 120.89C488.38 122.45 489.89 123.53 492.11 124.13V127.9H448.81V124.13C452.03 123.33 454.72 121.99 456.88 120.13C459.04 118.27 461.18 116.03 463.29 113.42L497.54 69.97L468.27 32.85C466.26 30.24 464.17 28 462.01 26.14C459.85 24.28 457.16 23.05 453.94 22.44V18.67H497.24V22.44C494.93 23.04 493.34 24.05 492.49 25.46C491.63 26.87 492.06 28.63 493.77 30.74L510.97 52.61Z" fill="#FECB3F"/>
<path d="M120.86 127.9H88.12V124.13C89.33 124.03 90.16 123.68 90.61 123.07C91.06 122.46 91.21 121.79 91.06 121.03C90.91 120.28 90.53 119.45 89.93 118.54C89.33 117.63 88.67 116.78 87.97 115.98L26.87 52.61V118.09C26.87 120 27.15 121.31 27.7 122.01C28.25 122.71 29.64 123.42 31.85 124.12V127.89H0.619995V124.12C2.93 123.62 4.37 122.94 4.92 122.08C5.47 121.23 5.75 119.89 5.75 118.08V28.46C5.75 26.45 5.42 25.06 4.77 24.31C4.11 23.56 2.73 22.93 0.619995 22.42V18.65H36.98V22.42C35.17 22.72 34.26 23.78 34.26 25.59C34.26 26.6 34.51 27.5 35.01 28.31C35.51 29.12 36.12 29.82 36.82 30.42L94.91 91.68V28.46C94.91 26.65 94.68 25.39 94.23 24.69C93.78 23.99 92.29 23.23 89.78 22.43V18.66H120.86V22.43C118.55 23.13 117.14 23.89 116.64 24.69C116.14 25.5 115.89 26.75 115.89 28.46V118.08C115.89 119.99 116.22 121.35 116.87 122.15C117.52 122.96 118.85 123.61 120.87 124.11V127.9H120.86Z" fill="#FECB3F"/>
</svg>
